<?xml version="1.0" standalone="no"?><!-- Generator: Gravit.io --><svg xmlns="http://www.w3.org/2000/svg" xmlns:xlink="http://www.w3.org/1999/xlink" style="isolation:isolate" viewBox="520 266.615478515625 264 139.586181640625" width="264" height="139.586181640625"><path d=" M 558.7421875 307.510009765625 Q 558.7421875 317.761962890625 553.17724609375 323.185302734375 Q 547.6123046875 328.608642578125 537.162109375 328.608642578125 L 525.6923828125 328.608642578125 L 525.6923828125 287.204345703125 L 538.3798828125 287.204345703125 Q 548.037109375 287.204345703125 553.3896484375 292.556884765625 Q 558.7421875 297.909423828125 558.7421875 307.510009765625 Z  M 553.64453125 307.679931640625 Q 553.64453125 299.580322265625 549.58056640625 295.473876953125 Q 545.5166015625 291.367431640625 537.501953125 291.367431640625 L 530.5068359375 291.367431640625 L 530.5068359375 324.445556640625 L 536.369140625 324.445556640625 Q 544.978515625 324.445556640625 549.3115234375 320.211669921875 Q 553.64453125 315.977783203125 553.64453125 307.679931640625 Z  M 591.0576171875 313.060791015625 Q 591.0576171875 320.650634765625 587.234375 324.912841796875 Q 583.4111328125 329.175048828125 576.6708984375 329.175048828125 Q 572.5078125 329.175048828125 569.279296875 327.220947265625 Q 566.05078125 325.266845703125 564.294921875 321.613525390625 Q 562.5390625 317.960205078125 562.5390625 313.060791015625 Q 562.5390625 305.470947265625 566.333984375 301.237060546875 Q 570.12890625 297.003173828125 576.869140625 297.003173828125 Q 583.3828125 297.003173828125 587.22021484375 301.336181640625 Q 591.0576171875 305.669189453125 591.0576171875 313.060791015625 Z  M 567.41015625 313.060791015625 Q 567.41015625 319.008056640625 569.7890625 322.123291015625 Q 572.16796875 325.238525390625 576.7841796875 325.238525390625 Q 581.400390625 325.238525390625 583.79345703125 322.137451171875 Q 586.1865234375 319.036376953125 586.1865234375 313.060791015625 Q 586.1865234375 307.141845703125 583.79345703125 304.069091796875 Q 581.400390625 300.996337890625 576.7275390625 300.996337890625 Q 572.111328125 300.996337890625 569.7607421875 304.026611328125 Q 567.41015625 307.056884765625 567.41015625 313.060791015625 Z  M 610.7421875 329.175048828125 Q 607.7119140625 329.175048828125 605.20556640625 328.056396484375 Q 602.69921875 326.937744140625 601 324.615478515625 L 600.66015625 324.615478515625 Q 601 327.334228515625 601 329.769775390625 L 601 342.542236328125 L 596.298828125 342.542236328125 L 596.298828125 297.569580078125 L 600.1220703125 297.569580078125 L 600.7734375 301.817626953125 L 601 301.817626953125 Q 602.8125 299.268798828125 605.2197265625 298.135986328125 Q 607.626953125 297.003173828125 610.7421875 297.003173828125 Q 616.916015625 297.003173828125 620.27197265625 301.222900390625 Q 623.6279296875 305.442626953125 623.6279296875 313.060791015625 Q 623.6279296875 320.707275390625 620.21533203125 324.941162109375 Q 616.802734375 329.175048828125 610.7421875 329.175048828125 Z  M 610.0625 300.996337890625 Q 605.3046875 300.996337890625 603.1806640625 303.630126953125 Q 601.056640625 306.263916015625 601 312.012939453125 L 601 313.060791015625 Q 601 319.602783203125 603.1806640625 322.420654296875 Q 605.361328125 325.238525390625 610.17578125 325.238525390625 Q 614.197265625 325.238525390625 616.47705078125 321.981689453125 Q 618.7568359375 318.724853515625 618.7568359375 313.004150390625 Q 618.7568359375 307.198486328125 616.47705078125 304.097412109375 Q 614.197265625 300.996337890625 610.0625 300.996337890625 Z " fill-rule="evenodd" fill="rgb(255,255,255)" stroke-width="1" stroke="rgba(0,0,0,0)" stroke-linejoin="miter" stroke-linecap="square"/><path d=" M 657.93896484375 322.2861328125 Q 647.4658203125 322.2861328125 641.403564453125 329.260986328125 Q 635.34130859375 336.23583984375 635.34130859375 348.3603515625 Q 635.34130859375 360.83251953125 641.186279296875 367.633544921875 Q 647.03125 374.4345703125 657.85205078125 374.4345703125 Q 664.5009765625 374.4345703125 673.0185546875 372.04443359375 L 673.0185546875 378.51953125 Q 666.4130859375 380.99658203125 656.72216796875 380.99658203125 Q 642.685546875 380.99658203125 635.058837890625 372.47900390625 Q 627.43212890625 363.96142578125 627.43212890625 348.2734375 Q 627.43212890625 338.4521484375 631.104248046875 331.064453125 Q 634.7763671875 323.6767578125 641.707763671875 319.6787109375 Q 648.63916015625 315.6806640625 658.02587890625 315.6806640625 Q 668.02099609375 315.6806640625 675.49560546875 319.3310546875 L 672.36669921875 325.67578125 Q 665.15283203125 322.2861328125 657.93896484375 322.2861328125 Z  M 687.0087890625 380.12744140625 L 679.794921875 380.12744140625 L 679.794921875 332.49853515625 L 687.0087890625 332.49853515625 L 687.0087890625 380.12744140625 Z  M 679.1865234375 319.591796875 Q 679.1865234375 317.11474609375 680.4033203125 315.963134765625 Q 681.6201171875 314.8115234375 683.4453125 314.8115234375 Q 685.18359375 314.8115234375 686.44384765625 315.98486328125 Q 687.7041015625 317.158203125 687.7041015625 319.591796875 Q 687.7041015625 322.025390625 686.44384765625 323.220458984375 Q 685.18359375 324.41552734375 683.4453125 324.41552734375 Q 681.6201171875 324.41552734375 680.4033203125 323.220458984375 Q 679.1865234375 322.025390625 679.1865234375 319.591796875 Z  M 728.8984375 380.12744140625 L 728.8984375 349.31640625 Q 728.8984375 343.4931640625 726.24755859375 340.625 Q 723.5966796875 337.7568359375 717.947265625 337.7568359375 Q 710.47265625 337.7568359375 706.99609375 341.79833984375 Q 703.51953125 345.83984375 703.51953125 355.1396484375 L 703.51953125 380.12744140625 L 696.3056640625 380.12744140625 L 696.3056640625 332.49853515625 L 702.17236328125 332.49853515625 L 703.345703125 339.01708984375 L 703.693359375 339.01708984375 Q 705.90966796875 335.4970703125 709.90771484375 333.563232421875 Q 713.90576171875 331.62939453125 718.81640625 331.62939453125 Q 727.4208984375 331.62939453125 731.7666015625 335.779541015625 Q 736.1123046875 339.9296875 736.1123046875 349.0556640625 L 736.1123046875 380.12744140625 L 728.8984375 380.12744140625 Z  M 765.0517578125 380.99658203125 Q 754.49169921875 380.99658203125 748.385986328125 374.56494140625 Q 742.2802734375 368.13330078125 742.2802734375 356.7041015625 Q 742.2802734375 345.18798828125 747.951416015625 338.40869140625 Q 753.62255859375 331.62939453125 763.18310546875 331.62939453125 Q 772.13525390625 331.62939453125 777.35009765625 337.517822265625 Q 782.56494140625 343.40625 782.56494140625 353.0537109375 L 782.56494140625 357.61669921875 L 749.7548828125 357.61669921875 Q 749.97216796875 366.00390625 753.991943359375 370.349609375 Q 758.01171875 374.6953125 765.3125 374.6953125 Q 773.00439453125 374.6953125 780.5224609375 371.4794921875 L 780.5224609375 377.9111328125 Q 776.6982421875 379.5625 773.286865234375 380.279541015625 Q 769.87548828125 380.99658203125 765.0517578125 380.99658203125 Z  M 763.09619140625 337.669921875 Q 757.35986328125 337.669921875 753.948486328125 341.4072265625 Q 750.537109375 345.14453125 749.9287109375 351.75 L 774.82958984375 351.75 Q 774.82958984375 344.92724609375 771.78759765625 341.298583984375 Q 768.74560546875 337.669921875 763.09619140625 337.669921875 Z " fill-rule="evenodd" fill="rgb(255,255,255)" stroke-width="1" stroke="rgba(0,0,0,0)" stroke-linejoin="miter" stroke-linecap="square"/></svg>